<svg width="118" height="140" viewBox="0 0 118 140" fill="none" xmlns="http://www.w3.org/2000/svg">
<path fill-rule="evenodd" clip-rule="evenodd" d="M108.733 12.6935C111.039 12.2746 113.209 12.8469 115.007 14.3483C116.806 15.8503 117.757 17.8828 117.758 20.2259V72.4959C117.758 88.9319 111.766 104.836 100.885 117.277C90.1115 129.596 75.3481 137.658 59.3137 139.978C59.2098 139.993 59.1051 140 59.0003 140C58.8956 140 58.7909 139.993 58.687 139.978C42.6526 137.658 27.8888 129.596 17.1157 117.277C6.23503 104.836 0.24292 88.9322 0.24292 72.4959V20.2259C0.24292 17.8828 1.19366 15.8503 2.99206 14.3486C4.79128 12.8466 6.96101 12.274 9.26664 12.6935C24.5945 15.4763 38.1529 9.29138 55.3174 1.46149L55.8034 1.23996C56.5605 0.894807 57.3242 0.546666 58.0947 0.196299C58.6697 -0.0651074 59.3298 -0.0651074 59.9051 0.196299C60.7786 0.59308 61.6427 0.987242 62.4987 1.37767L62.6824 1.46149C79.847 9.29138 93.4051 15.4754 108.733 12.6935ZM59.0001 135.601C90.0254 130.954 113.382 103.882 113.382 72.4956V20.2259C113.382 19.1931 112.997 18.369 112.204 17.707C111.411 17.0455 110.532 16.8136 109.515 16.9982C106.645 17.5191 103.85 17.76 101.1 17.76C87.8708 17.7606 75.6588 12.1898 60.8734 5.44522L60.8668 5.4422L60.7152 5.37305C60.1472 5.11389 59.5756 4.85313 59.0001 4.59099C58.3733 4.87645 57.751 5.16028 57.1333 5.4422L57.1242 5.44633C39.2668 13.5923 25.1615 20.0266 8.48488 16.9982C8.26039 16.9575 8.04246 16.937 7.83082 16.937C7.08433 16.937 6.41386 17.1915 5.79617 17.7072C5.00347 18.369 4.61792 19.1931 4.61792 20.2259V72.4956C4.61792 103.882 27.9747 130.955 59.0001 135.601ZM54.7191 74.7643L79.9437 49.2884C82.8635 46.3523 87.6227 46.3386 90.5564 49.2554C91.9772 50.6685 92.7625 52.55 92.7682 54.554C92.7737 56.5578 91.9985 58.4437 90.5857 59.8645C86.9984 63.4875 83.4131 67.1239 79.8275 70.7607C73.3594 77.321 66.6708 84.1047 60.0503 90.7252C58.6306 92.1448 56.7431 92.9266 54.7352 92.9266C52.7274 92.9266 50.8398 92.1448 49.4202 90.7252L32.4416 73.7466C31.0219 72.3272 30.2401 70.4397 30.2401 68.4318C30.2401 66.424 31.0219 64.5364 32.4416 63.1167C33.8613 61.697 35.7488 60.9153 37.7567 60.9153C39.7645 60.9153 41.6521 61.697 43.0718 63.1167L54.7191 74.7643ZM76.9043 67.4941C80.4282 63.9202 83.9514 60.3471 87.48 56.7831C88.0722 56.1875 88.3954 55.4014 88.393 54.5666C88.3905 53.7313 88.0632 52.947 87.4709 52.3581C86.2484 51.1423 84.2649 51.1478 83.0492 52.3704L54.7344 80.9673L39.9778 66.2107C39.3844 65.6173 38.5953 65.2905 37.7564 65.2905C36.9172 65.2905 36.1281 65.6173 35.535 66.2107C34.9416 66.804 34.6149 67.5929 34.6149 68.4321C34.6149 69.2713 34.9416 70.0601 35.535 70.6532L52.5136 87.6318C53.1069 88.2251 53.8958 88.5519 54.735 88.5519C55.5742 88.5519 56.3633 88.2251 56.9564 87.6318C63.536 81.0524 70.188 74.3059 76.6235 67.7789L76.712 67.6891L76.9043 67.4941Z" fill="#E91609"/>
<path fill-rule="evenodd" clip-rule="evenodd" d="M104.501 24.2008C88.2888 25.1767 73.2109 18.2943 59.9087 12.2207C59.3317 11.9571 58.6686 11.9571 58.0914 12.2207L58.0886 12.222C45.6443 17.904 31.648 24.2946 16.6213 24.2941C15.5861 24.2941 14.5443 24.2637 13.4995 24.2008C12.8982 24.1636 12.3075 24.3783 11.8684 24.7917C11.4295 25.2052 11.1804 25.7813 11.1804 26.3845V72.4959C11.1804 85.9064 15.9858 98.9895 24.7118 109.335C33.4137 119.652 45.4572 126.598 58.6244 128.893C58.7488 128.915 58.8745 128.926 59.0001 128.926C59.1256 128.926 59.2513 128.915 59.3758 128.893C72.5429 126.598 84.5867 119.652 93.2883 109.335C102.014 98.9895 106.82 85.9064 106.82 72.4959V26.3845C106.82 25.7813 106.571 25.2052 106.132 24.7917C105.693 24.3783 105.102 24.1645 104.501 24.2008ZM59.0001 124.516C83.7951 120.003 102.445 97.7085 102.445 72.4956V28.6598C86.4354 28.9671 71.923 22.5118 59.0001 16.6154C46.0777 22.5118 31.5559 28.9647 15.5554 28.6598V72.4956C15.5554 97.7085 34.2047 120.003 59.0001 124.516Z" fill="white"/>
</svg>
