<svg width="140" height="124" viewBox="0 0 140 124" fill="none" xmlns="http://www.w3.org/2000/svg">
<path d="M59.0625 20.4375C59.0625 21.6455 58.083 22.625 56.875 22.625H78.75C77.542 22.625 76.5625 21.6455 76.5625 20.4375C76.5625 19.2295 77.542 18.25 78.75 18.25H56.875C58.083 18.25 59.0625 19.2295 59.0625 20.4375Z" fill="#E91609"/>
<path d="M96.25 72.9375C96.25 74.1455 95.2705 75.125 94.0625 75.125H115.938C114.729 75.125 113.75 74.1455 113.75 72.9375C113.75 71.7295 114.729 70.75 115.938 70.75H94.0625C95.2705 70.75 96.25 71.7295 96.25 72.9375Z" fill="#E91609"/>
<path fill-rule="evenodd" clip-rule="evenodd" d="M132.66 57.0141C136.248 61.1338 136.25 67.2536 132.667 71.363C136.932 72.8563 140 76.9193 140 81.6875C140 87.7348 135.109 92.625 129.062 92.625H85.4878C86.1021 90.9283 86.3244 89.9558 86.6203 88.25H129.062C130.816 88.25 132.464 87.5675 133.704 86.3286C137.826 82.2062 134.87 75.125 129.062 75.125H115.938C114.729 75.125 113.75 74.1455 113.75 72.9375C113.75 71.7295 114.729 70.75 115.938 70.75H124.414C126.168 70.75 127.816 70.0675 129.055 68.8286C133.178 64.7062 130.222 57.625 124.414 57.625C85.6879 57.625 83.8878 57.4229 82.5205 58.0978C82.3705 58.1718 82.2258 58.2564 82.0381 58.3529C81.231 56.8406 80.7132 56.031 79.7207 54.6273C80.2709 54.3211 80.8464 54.0654 81.4398 53.8589C78.0303 49.9428 77.857 44.2271 80.9435 40.125H70C68.792 40.125 67.8125 39.1455 67.8125 37.9375C67.8125 36.7295 68.792 35.75 70 35.75H85.3125C88.9309 35.75 91.875 32.8062 91.875 29.1875C91.875 25.5688 88.9309 22.625 85.3125 22.625H78.75C77.542 22.625 76.5625 21.6455 76.5625 20.4375C76.5625 19.2295 77.542 18.25 78.75 18.25H89.6875C93.3059 18.25 96.25 15.3059 96.25 11.6875C96.25 8.0691 93.3059 5.125 89.6875 5.125H50.3125C46.6941 5.125 43.75 8.0691 43.75 11.6875C43.75 15.3059 46.6941 18.25 50.3125 18.25H56.875C58.083 18.25 59.0625 19.2295 59.0625 20.4375C59.0625 21.6455 58.083 22.625 56.875 22.625H45.9375C42.3188 22.625 39.3753 25.5688 39.3753 29.1875C39.3753 32.7558 42.2377 35.6679 45.787 35.7483C42.6019 35.7144 40.7707 35.835 37.5452 36.1922C32.6892 30.3835 35.0902 21.5575 42.1304 18.9347C35.9002 11.9084 40.9188 0.75 50.3125 0.75H89.6875C95.7184 0.75 100.625 5.65656 100.625 11.6875C100.625 16.38 97.6538 20.3907 93.4946 21.9403C96.9768 25.8674 97.1534 31.6339 94.0565 35.75H129.062C135.093 35.75 140 40.6566 140 46.6875C140 51.4582 136.928 55.5228 132.66 57.0141ZM87.2818 75.125H94.0625C95.2705 75.125 96.25 74.1455 96.25 72.9375C96.25 71.7295 95.2705 70.75 94.0625 70.75H86.6203C86.9748 72.4336 87.1272 73.3918 87.2818 75.125ZM129.062 53.25C132.681 53.25 135.625 50.3059 135.625 46.6875C135.625 43.0691 132.681 40.125 129.062 40.125H89.6875C86.0691 40.125 83.125 43.0691 83.125 46.6875C83.125 50.3059 86.0691 53.25 89.6875 53.25H129.062Z" fill="#E91609"/>
<path fill-rule="evenodd" clip-rule="evenodd" d="M37.5452 36.1922C16.3496 39.2147 0 57.4825 0 79.5C0 103.624 19.6263 123.25 43.75 123.25C63.3027 123.25 79.8995 110.356 85.4878 92.625C86.1021 90.9283 86.3244 89.9558 86.6203 88.25C87.4858 84.0041 87.7259 79.5763 87.2818 75.125C87.1272 73.3918 86.9748 72.4336 86.6203 70.75C85.7218 66.3416 84.1567 62.1736 82.0381 58.3529C81.231 56.8406 80.7132 56.031 79.7207 54.6273C75.4395 48.4549 69.6128 43.4327 62.8052 40.125C57.8416 37.7133 52.3565 36.2131 46.5686 35.8432C46.3687 35.7831 46.1571 35.75 45.9378 35.75L45.787 35.7483C42.6019 35.7144 40.7707 35.835 37.5452 36.1922ZM4.375 79.5C4.375 101.211 22.0385 118.875 43.75 118.875C65.4615 118.875 83.125 101.211 83.125 79.5C83.125 57.7885 65.4615 40.125 43.75 40.125C22.0385 40.125 4.375 57.7885 4.375 79.5Z" fill="white"/>
<path d="M67.8125 37.9375C67.8125 36.7295 68.792 35.75 70 35.75L45.787 35.7483L45.9378 35.75C46.1571 35.75 46.3687 35.7831 46.5686 35.8432C52.3565 36.2131 57.8416 37.7133 62.8052 40.125H70C68.792 40.125 67.8125 39.1455 67.8125 37.9375Z" fill="#E91609"/>
</svg>
