<svg width="45" height="45" viewBox="0 0 45 45" fill="none" xmlns="http://www.w3.org/2000/svg">
<circle cx="22.5" cy="22.5" r="21.75" transform="rotate(-180 22.5 22.5)" stroke="#565654" stroke-width="1.5"/>
<path d="M23.7925 28.6617C23.3007 29.1535 23.3007 29.9509 23.7925 30.4427C24.2843 30.9345 25.0816 30.9345 25.5734 30.4427L32.2898 23.7263C32.5357 23.4804 32.6587 23.1581 32.6587 22.8358C32.6587 22.665 32.6247 22.5022 32.5631 22.3537C32.5017 22.2052 32.4106 22.066 32.2898 21.9453L25.5734 15.2289C25.0816 14.7371 24.2843 14.7371 23.7925 15.2289C23.3007 15.7207 23.3007 16.518 23.7925 17.0098L28.3591 21.5764H12.0897C11.3942 21.5764 10.8303 22.1403 10.8303 22.8358C10.8303 23.5313 11.3942 24.0951 12.0897 24.0951L28.3591 24.0951L23.7925 28.6617Z" fill="#565654"/>
</svg>
