<svg width="45" height="45" viewBox="0 0 45 45" fill="none" xmlns="http://www.w3.org/2000/svg">
<circle cx="22.5" cy="22.5" r="21.75" stroke="#565654" stroke-width="1.5"/>
<path d="M21.2075 16.3383C21.6993 15.8465 21.6993 15.0491 21.2075 14.5573C20.7157 14.0655 19.9184 14.0655 19.4266 14.5573L12.7102 21.2737C12.4643 21.5196 12.3413 21.8419 12.3413 22.1642C12.3413 22.335 12.3753 22.4978 12.4369 22.6463C12.4983 22.7948 12.5894 22.934 12.7102 23.0547L19.4266 29.7711C19.9184 30.2629 20.7157 30.2629 21.2075 29.7711C21.6993 29.2793 21.6993 28.482 21.2075 27.9902L16.6409 23.4236H32.9103C33.6058 23.4236 34.1697 22.8597 34.1697 22.1642C34.1697 21.4687 33.6058 20.9049 32.9103 20.9049H16.6409L21.2075 16.3383Z" fill="#565654"/>
</svg>
