<svg width="140" height="102" viewBox="0 0 140 102" fill="none" xmlns="http://www.w3.org/2000/svg">
<path fill-rule="evenodd" clip-rule="evenodd" d="M124.622 8.83733C118.247 0.490833 112.796 -3.0148 103.786 3.84659L97.2993 8.78624C95.742 9.96751 90.0467 10.3629 84.5264 10.7461L84.4907 10.7485C84.2779 10.7625 84.0646 10.7782 83.8511 10.7939C83.6334 10.8099 83.4155 10.826 83.1975 10.8402L75.7466 11.7001C74.5082 11.9379 73.3139 12.2126 72.2323 12.5984L55.6715 18.5897C55.0081 18.6913 54.3905 18.7754 53.8256 18.8524L53.672 18.8733L53.6597 18.875C49.5378 19.4432 47.0543 19.7855 45.7448 23.0853C44.8183 25.4706 45.5141 28.4352 47.5891 30.8205C51.0294 34.7947 56.9556 36.2621 63.2516 34.7841L72.6004 33.5898C76.3996 33.0902 79.6701 35.7135 82.832 38.2497L82.8777 38.2864L110.612 60.0227L113.935 58.1688C119.045 55.9316 124.651 52.7396 129.303 46.8118L133.89 43.3096C137.588 40.4911 139.506 37.7677 139.918 34.7306C140.47 30.6103 138.194 26.629 134.597 21.9132L124.622 8.83733ZM59.161 96.4418L61.6646 93.7351C63.2887 91.6898 63.7099 88.845 62.7286 86.1197C61.6909 83.3223 59.2969 81.0534 56.4695 80.1814C56.1643 80.089 55.861 80.0294 55.5561 79.9696L55.4776 79.9541C56.0555 78.138 56.0291 76.1104 55.3315 74.1462C54.2217 71.0459 51.5794 68.5303 48.4314 67.5948C47.0819 67.1913 45.7166 67.1105 44.4238 67.2919C44.5346 65.9988 44.3869 64.6407 43.9181 63.3283C42.817 60.2085 40.166 57.6966 37.0004 56.7682C35.6599 56.3648 34.3032 56.2821 32.9999 56.4654C33.1179 55.1723 32.9717 53.8231 32.4942 52.5018C31.4039 49.382 28.7508 46.8787 25.5852 45.9417C22.365 44.978 19.0532 45.7655 16.8599 47.9604L14.2291 50.725L11.2186 53.903C9.02715 56.2037 8.3843 59.6248 9.53096 62.8292C10.6321 65.9403 13.2831 68.4522 16.4487 69.3982C17.3576 69.6624 18.2754 69.7927 19.165 69.7927C19.5516 69.7927 19.9233 69.7438 20.2943 69.695L20.4492 69.6748C20.3293 70.9766 20.4774 72.3347 20.9443 73.6665C22.0541 76.7653 24.7054 79.2825 27.8621 80.2266C28.7709 80.4926 29.6872 80.6211 30.5874 80.6211C30.977 80.6211 31.3651 80.5694 31.7414 80.5193L31.8628 80.5032C31.7449 81.805 31.891 83.165 32.358 84.5036C33.4697 87.6058 36.1206 90.1109 39.2863 91.0532C40.1951 91.321 41.1024 91.4477 42.0026 91.4477C42.5541 91.4477 43.1037 91.3966 43.6357 91.2944C43.7184 91.9338 43.8559 92.5785 44.0956 93.2093C45.1137 96.0102 47.5166 98.2862 50.3528 99.1476C51.2143 99.4136 52.0773 99.544 52.9319 99.544C55.0054 99.544 56.959 98.7636 58.3435 97.2962H58.354V97.2875L59.161 96.4418ZM12.9802 61.5958C12.3021 59.6967 12.6421 57.7149 13.8717 56.4202L20.0005 49.9623C20.6241 49.3194 22.5988 48.8683 24.5524 49.4461C26.6169 50.0626 28.3327 51.692 29.0481 53.7234C29.7281 55.633 29.3862 57.6235 28.1674 58.899V58.9095L22.021 65.3674C21.415 66.0103 19.4332 66.4509 17.4882 65.8818C15.4219 65.2668 13.6971 63.6321 12.9802 61.5958ZM24.3954 72.4403C23.726 70.5235 24.0641 68.5296 25.2851 67.2384L30.8184 61.4304C32.048 60.1373 34.0122 59.706 35.9658 60.2853C38.0303 60.8913 39.7461 62.5245 40.4719 64.5518C41.1519 66.4596 40.8033 68.4395 39.5823 69.7432L34.058 75.5511C32.8284 76.8353 30.8571 77.2846 28.9019 76.7068C26.8458 76.0936 25.1194 74.4503 24.3954 72.4403ZM35.8088 83.2687C35.1378 81.3485 35.4865 79.3686 36.7071 78.0755L42.2314 72.2675V72.2551C43.4611 70.9725 45.4323 70.5254 47.3875 71.1119C49.4344 71.7179 51.1678 73.3597 51.885 75.3783C52.5631 77.2861 52.2231 79.2785 51.0043 80.5679L45.4534 86.3882C44.2343 87.6637 42.2683 88.1021 40.3255 87.5349C38.2681 86.9189 36.5346 85.2858 35.8088 83.2687ZM47.5355 91.9468C47.2613 91.2128 47.2046 90.4892 47.2785 89.7919L48.1152 88.9113C48.1152 88.9085 48.1167 88.905 48.1167 88.905L48.1179 88.9034C48.1205 88.9007 48.1239 88.9007 48.1239 88.9007V88.8902L53.2168 83.5527C53.9055 83.4418 54.6295 83.461 55.3906 83.6901C57.1523 84.2327 58.6479 85.6525 59.2908 87.3878C59.8686 88.9909 59.6112 90.6466 58.6303 91.6914L55.6938 94.7619C54.7019 95.8101 53.0707 96.1588 51.427 95.6426C49.6567 95.1035 48.161 93.689 47.5269 91.9468H47.5355ZM110.816 55.511L110.806 55.5197L85.1707 35.4391C81.7567 32.6856 77.4831 29.2893 72.1332 29.9621L62.61 31.1918C55.0051 32.9621 51.3075 29.5218 50.3528 28.4297C49.1972 27.0907 48.7286 25.5229 49.1603 24.4292C49.6288 23.2454 50.0958 23.071 54.1703 22.5019C54.8484 22.4102 55.5829 22.3099 56.4004 22.1901C56.4288 22.1833 56.4573 22.177 56.4858 22.1707C56.5755 22.151 56.6645 22.1313 56.7475 22.0965L73.4827 16.0508C76.4931 14.9673 80.6859 14.675 84.7412 14.3985C90.1088 14.0303 95.6244 13.6339 99.588 11.462L125.654 45.4274C121.166 50.7213 115.888 53.4308 110.816 55.511ZM131.669 40.3843L128.337 42.9244L102.576 9.36406L105.998 6.76573C112.247 2.00413 115.485 2.89563 121.705 11.0693L131.679 24.1245C135.285 28.8508 136.615 31.777 136.284 34.2255C136.009 36.2445 134.542 38.1981 131.669 40.3843Z" fill="#E91609"/>
<path fill-rule="evenodd" clip-rule="evenodd" d="M83.1975 10.8402L81.4817 10.1144C74.7842 7.26242 71.7384 5.96743 64.0031 6.60161C62.4424 6.7391 60.6913 6.92396 58.847 7.11595C53.8194 7.64794 44.9548 8.56576 41.8369 8.21709C41.7347 8.0796 41.6344 7.93344 41.4882 7.81361L36.6068 3.99832C27.6967 -2.98476 22.1916 0.446861 15.6966 8.71409L5.55837 21.6426C2.39305 25.6765 -0.460753 30.0101 0.0622586 34.3754C0.439112 37.4317 2.31006 40.1852 4.14385 41.6155L11.118 47.0766C12.5501 48.2146 13.5296 49.3965 14.2291 50.725L16.8599 47.9604C16.2186 46.9614 15.4206 46.021 14.4483 45.1347L40.6692 11.7088C43.523 12.2321 49.1197 11.811 59.2313 10.7541C61.0564 10.5708 62.7986 10.3878 64.3242 10.2416C69.433 9.81709 71.966 10.2503 75.7466 11.7001L83.1975 10.8402ZM34.3503 6.87503C28.1739 2.04283 24.9274 2.88479 18.5785 10.9777L8.44066 23.9046C4.77834 28.5659 3.40253 31.4742 3.70538 33.9335C3.94505 35.9487 5.38403 37.9343 6.80753 39.0528L11.6236 42.8154L37.7361 9.52632L34.3503 6.87503Z" fill="white"/>
<path d="M59.161 96.4418L64.7119 100.774C65.3532 101.279 66.9421 101.792 68.582 101.792C69.794 101.792 71.05 101.508 72.2428 100.937C74.9309 99.6552 76.9781 97.0497 77.5735 94.1501C77.637 93.8187 77.6844 93.479 77.711 93.1406C78.3084 93.2691 78.9035 93.3521 79.5272 93.3521C80.8485 93.3521 82.1977 93.0579 83.4908 92.4606C86.4821 91.0671 88.7386 88.1941 89.3622 84.965C89.4997 84.2497 89.5455 83.5415 89.5279 82.8457C90.3646 83.1188 91.2523 83.2579 92.1525 83.2579C93.4738 83.2579 94.832 82.9637 96.1248 82.3682C99.1056 80.9819 101.355 78.1015 101.996 74.8708C102.107 74.3106 102.153 73.7523 102.162 73.2027C103.346 73.8087 104.658 74.1258 106.008 74.1258C107.338 74.1258 108.687 73.8316 109.971 73.2361C112.952 71.8532 115.21 68.9802 115.853 65.7421C116.405 62.9165 115.67 60.1348 113.935 58.1688L110.612 60.0227C112.016 61.1168 112.649 63.0351 112.265 65.0135C111.843 67.1291 110.376 68.9997 108.429 69.8983C106.585 70.7617 104.575 70.6065 103.868 70.0569L89.6839 58.964C88.8859 58.3404 87.739 58.4865 87.1156 59.2758C86.492 60.0738 86.6295 61.2295 87.4275 61.855L96.7587 69.1586C98.1627 70.2597 98.795 72.1675 98.411 74.1493C97.9899 76.2596 96.5209 78.1306 94.5849 79.0394C92.7316 79.8903 90.7129 79.7457 89.3195 78.6449L79.9777 71.3413C79.1797 70.7177 78.0328 70.8638 77.4094 71.655C76.7858 72.4496 76.9319 73.6087 77.7213 74.2233L84.1442 79.2599C85.5376 80.361 86.1628 82.2688 85.7773 84.2506C85.3651 86.3486 83.8977 88.2248 81.9512 89.1321C80.0979 89.9846 78.0792 89.8368 76.6858 88.7357H76.6752L70.2805 83.7168C69.4825 83.0931 68.3269 83.2393 67.7014 84.0286C67.0777 84.8266 67.2239 85.9736 68.015 86.5988L73.9236 91.2229C74.0998 91.9115 74.1438 92.6358 73.9886 93.3933C73.6118 95.2023 72.345 96.8267 70.675 97.6247C69.1248 98.3592 67.4654 98.2676 66.3169 97.3764L61.6646 93.7351L59.161 96.4418Z" fill="white"/>
</svg>
